<?xml version="1.0" encoding="utf-8"?>
<!-- Generator: Adobe Illustrator 16.0.0, SVG Export Plug-In . SVG Version: 6.00 Build 0)  -->
<!DOCTYPE svg PUBLIC "-//W3C//DTD SVG 1.1//EN" "http://www.w3.org/Graphics/SVG/1.1/DTD/svg11.dtd">
<svg version="1.1" id="Layer_1" xmlns="http://www.w3.org/2000/svg" xmlns:xlink="http://www.w3.org/1999/xlink" x="0px" y="0px"
	 width="106.5px" height="106.553px" viewBox="367.695 229.419 106.5 106.553"
	 enable-background="new 367.695 229.419 106.5 106.553" xml:space="preserve">
<g>
	<g>
		<defs>
			<rect id="SVGID_1_" width="841.89" height="595.277"/>
		</defs>
		<clipPath id="SVGID_2_">
			<use xlink:href="#SVGID_1_"  overflow="visible"/>
		</clipPath>
		<path clip-path="url(#SVGID_2_)" fill="#232222" d="M388.632,298.572h-2.348v3.859h2.294c1.35,0,2.105-0.676,2.105-1.943
			C390.684,299.408,389.955,298.572,388.632,298.572"/>
	</g>
	<g>
		<defs>
			<rect id="SVGID_3_" width="841.89" height="595.277"/>
		</defs>
		<clipPath id="SVGID_4_">
			<use xlink:href="#SVGID_3_"  overflow="visible"/>
		</clipPath>
		<path clip-path="url(#SVGID_4_)" fill="#232222" d="M407.563,267.746c-2.941,0-5.371,2.456-5.371,5.426
			c0,2.941,2.43,5.371,5.371,5.371c2.97,0,5.398-2.43,5.398-5.371C412.961,270.202,410.533,267.746,407.563,267.746"/>
	</g>
	<g>
		<defs>
			<rect id="SVGID_5_" width="841.89" height="595.277"/>
		</defs>
		<clipPath id="SVGID_6_">
			<use xlink:href="#SVGID_5_"  overflow="visible"/>
		</clipPath>
		<path clip-path="url(#SVGID_6_)" fill="#232222" d="M406.907,291.445c-2.942,0-5.372,2.457-5.372,5.426
			c0,2.942,2.43,5.373,5.372,5.373c2.969,0,5.397-2.431,5.397-5.373C412.305,293.901,409.876,291.445,406.907,291.445"/>
	</g>
	<g>
		<defs>
			<rect id="SVGID_7_" width="841.89" height="595.277"/>
		</defs>
		<clipPath id="SVGID_8_">
			<use xlink:href="#SVGID_7_"  overflow="visible"/>
		</clipPath>
		<path clip-path="url(#SVGID_8_)" fill="#232222" d="M427.927,291.256h-3.996v4.211h3.996c1.105,0,2.051-0.891,2.051-2.159
			C429.978,292.038,429.033,291.256,427.927,291.256"/>
	</g>
	<g>
		<defs>
			<rect id="SVGID_9_" width="841.89" height="595.277"/>
		</defs>
		<clipPath id="SVGID_10_">
			<use xlink:href="#SVGID_9_"  overflow="visible"/>
		</clipPath>
		<path clip-path="url(#SVGID_10_)" fill="#232222" d="M445.787,273.117c0-3.05-1.971-5.452-5.021-5.452h-2.834v10.931h2.834
			C443.816,278.596,445.787,276.194,445.787,273.117"/>
	</g>
	<g>
		<defs>
			<rect id="SVGID_11_" width="841.89" height="595.277"/>
		</defs>
		<clipPath id="SVGID_12_">
			<use xlink:href="#SVGID_11_"  overflow="visible"/>
		</clipPath>
		<path clip-path="url(#SVGID_12_)" fill="#232222" d="M463.699,271.011c0.27,0,0.514,0.244,0.514,0.514v2.942
			c0,0.296-0.244,0.513-0.514,0.513h-6.154v3.644h7.479c0.297,0,0.512,0.243,0.512,0.512v2.943c0,0.269-0.215,0.513-0.512,0.513
			h-11.176c-0.297,0-0.514-0.244-0.514-0.513V264.21c0-0.27,0.217-0.513,0.514-0.513h11.176c0.297,0,0.512,0.243,0.512,0.513v2.942
			c0,0.27-0.215,0.513-0.512,0.513h-7.479v3.346H463.699z M444.505,306.292h-6.586c-0.27,0-0.486-0.244-0.486-0.514v-17.87
			c0-0.27,0.217-0.513,0.486-0.513h6.586c5.209,0,9.475,4.239,9.475,9.421C453.978,302.052,449.714,306.292,444.505,306.292
			 M433.72,282.079V264.21c0-0.27,0.217-0.513,0.486-0.513h6.586c5.209,0,9.475,4.237,9.475,9.42c0,5.237-4.266,9.475-9.475,9.475
			h-6.586C433.937,282.592,433.72,282.348,433.72,282.079 M433.865,305.507c0.188,0.352,0,0.783-0.459,0.783h-3.59
			c-0.217,0-0.379-0.135-0.432-0.242l-3.592-7.153h-1.861v6.884c0,0.27-0.244,0.514-0.514,0.514h-3.211
			c-0.297,0-0.512-0.244-0.512-0.514v-17.87c0-0.27,0.215-0.513,0.512-0.513h8.071c3.428,0,5.885,2.618,5.885,5.831
			c0,2.484-1.484,4.481-3.996,5.425L433.865,305.507z M407.564,282.862c-5.399,0-9.691-4.292-9.691-9.69
			c0-5.399,4.292-9.745,9.691-9.745c5.397,0,9.717,4.346,9.717,9.745C417.281,278.57,412.962,282.862,407.564,282.862
			 M406.907,306.561c-5.398,0-9.69-4.292-9.69-9.69c0-5.399,4.292-9.744,9.69-9.744s9.718,4.345,9.718,9.744
			C416.625,302.269,412.306,306.561,406.907,306.561 M393.248,282.564c-0.189,0-0.431-0.108-0.486-0.189l-6.234-8.367v7.935
			c0,0.351-0.297,0.648-0.648,0.648h-3.158c-0.378,0-0.647-0.297-0.647-0.648v-17.599c0-0.351,0.27-0.648,0.647-0.648h3.158
			c0.352,0,0.648,0.297,0.648,0.648v7.207l5.992-7.585c0.107-0.135,0.351-0.27,0.513-0.27h3.4c0.514,0,0.783,0.594,0.486,0.999
			l-6.316,8.017l6.884,8.853c0.296,0.406,0,0.999-0.514,0.999H393.248z M389.28,306.292h-6.694c-0.297,0-0.513-0.244-0.513-0.514
			v-17.87c0-0.27,0.216-0.513,0.513-0.513h6.289c3.186,0,5.804,2.187,5.804,5.021c0,2.16-1.539,3.617-3.077,4.238v0.027
			c1.646,0.54,3.563,1.782,3.563,4.399C395.164,304.266,392.492,306.292,389.28,306.292 M401.686,240.51
			c0-0.27,0.217-0.513,0.513-0.513h11.175c0.297,0,0.513,0.243,0.513,0.513v2.942c0,0.27-0.216,0.513-0.513,0.513h-7.477v3.346
			h6.154c0.27,0,0.514,0.244,0.514,0.514v2.941c0,0.297-0.244,0.514-0.514,0.514h-6.154v3.644h7.477
			c0.297,0,0.513,0.243,0.513,0.512v2.943c0,0.269-0.216,0.512-0.513,0.512h-11.175c-0.296,0-0.513-0.243-0.513-0.512V240.51z
			 M415.78,240.51c0-0.27,0.216-0.513,0.513-0.513h11.984c0.297,0,0.514,0.243,0.514,0.513v2.942c0,0.27-0.217,0.513-0.514,0.513
			h-3.859v14.414c0,0.269-0.242,0.512-0.514,0.512h-3.238c-0.271,0-0.514-0.243-0.514-0.512v-14.414h-3.859
			c-0.297,0-0.513-0.243-0.513-0.513V240.51L415.78,240.51z M431.525,279.136v2.943c0,0.269-0.217,0.513-0.514,0.513h-10.148
			c-0.297,0-0.514-0.244-0.514-0.513V264.21c0-0.27,0.217-0.513,0.514-0.513h3.212c0.27,0,0.512,0.243,0.512,0.513v14.414h6.426
			C431.31,278.624,431.525,278.867,431.525,279.136 M420.944,229.606c-11.824,0-22.743,3.868-31.568,10.402
			c5.103,0.124,9.243,4.303,9.243,9.408c0,5.237-4.264,9.474-9.475,9.474h-6.586c-0.27,0-0.485-0.243-0.485-0.512V246.54
			c-8.833,9.485-14.246,22.199-14.246,36.184c0,10.413,3.008,20.117,8.185,28.314h64.242c0.314,0,0.568,0.256,0.568,0.569v2.296
			c0,0.313-0.254,0.567-0.568,0.567h-61.896c9.685,12.972,25.154,21.368,42.587,21.368c29.336,0,53.118-23.779,53.118-53.116
			C474.062,253.389,450.281,229.606,420.944,229.606"/>
	</g>
	<g>
		<defs>
			<rect id="SVGID_13_" width="841.89" height="595.277"/>
		</defs>
		<clipPath id="SVGID_14_">
			<use xlink:href="#SVGID_13_"  overflow="visible"/>
		</clipPath>
		<path clip-path="url(#SVGID_14_)" fill="#232222" d="M390.278,293.119c0-1.08-0.729-1.835-1.754-1.835h-2.24v3.778h2.24
			C389.549,295.062,390.278,294.199,390.278,293.119"/>
	</g>
	<g>
		<defs>
			<rect id="SVGID_15_" width="841.89" height="595.277"/>
		</defs>
		<clipPath id="SVGID_16_">
			<use xlink:href="#SVGID_15_"  overflow="visible"/>
		</clipPath>
		<path clip-path="url(#SVGID_16_)" fill="#232222" d="M389.118,254.896c3.05,0,5.021-2.402,5.021-5.479
			c0-3.05-1.971-5.453-5.021-5.453h-2.834v10.932H389.118z"/>
	</g>
	<g>
		<defs>
			<rect id="SVGID_17_" width="841.89" height="595.277"/>
		</defs>
		<clipPath id="SVGID_18_">
			<use xlink:href="#SVGID_17_"  overflow="visible"/>
		</clipPath>
		<path clip-path="url(#SVGID_18_)" fill="#232222" d="M444.478,291.364h-2.834v10.932h2.834c3.051,0,5.021-2.401,5.021-5.479
			C449.5,293.766,447.529,291.364,444.478,291.364"/>
	</g>
</g>
</svg>
