<?xml version="1.0" encoding="utf-8"?>
<!-- Generator: Adobe Illustrator 16.0.0, SVG Export Plug-In . SVG Version: 6.00 Build 0)  -->
<!DOCTYPE svg PUBLIC "-//W3C//DTD SVG 1.1//EN" "http://www.w3.org/Graphics/SVG/1.1/DTD/svg11.dtd">
<svg version="1.1" id="Layer_1" xmlns="http://www.w3.org/2000/svg" xmlns:xlink="http://www.w3.org/1999/xlink" x="0px" y="0px"
	 width="346.957px" height="159.98px" viewBox="0 0 346.957 159.98" enable-background="new 0 0 346.957 159.98"
	 xml:space="preserve">
<g>
	<path fill-rule="evenodd" clip-rule="evenodd" fill="#69BC9A" d="M19.125,127.08c1.711-1.104,3.58-0.549,5.329-0.553
		c26.825-0.041,53.649-0.029,80.473-0.029c1.167,0,2.333-0.025,3.499-0.008c1.717,0.025,2.961-0.529,3.033-2.477
		c0.082-2.252-1.318-2.811-3.233-2.775c-1.166,0.021-2.332-0.002-3.499-0.002c-28.324-0.002-56.648-0.08-84.971,0.086
		c-4.01,0.023-6.324-1.211-8.322-4.719C-3.747,89.941,0.569,51.435,21.457,28.994c0.764-0.82,1.62-1.555,3.104-2.969
		c0.345,5.298-1.31,9.487-1.736,13.797c-0.183,1.843-1.215,4.205,2.122,4.463c2.72,0.211,4.588-0.487,4.629-3.686
		c0.029-2.319,0.015-4.682,1.468-7.011c2.296,2.162,2.982,5.184,4.573,7.631c0.773,1.189,1.057,3.071,2.951,2.961
		c1.584-0.093,1.863-1.71,2.475-2.85c1.398-2.606,2.769-5.227,4.762-8.999c0.714,3.721,1.417,6.182,1.609,8.681
		c0.266,3.453,2.485,3.563,4.932,3.188c2.927-0.448,1.811-2.567,1.531-4.29c-1.116-6.886-2.231-13.772-3.339-20.659
		c-0.21-1.307-0.233-2.958-1.686-3.317c-1.699-0.42-2.018,1.375-2.627,2.478c-2.481,4.491-4.921,9.006-7.833,14.352
		c-2.341-4.26-4.331-7.786-6.228-11.361c-1.494-2.816,1.256-3.51,2.654-4.48C51.783,5.155,70.434,0.146,91.044,3.201
		c27.399,4.06,47.122,18.678,59.73,43.207c1.579,3.072,2.43,4.708-2.501,4.798c-7.824,0.143-13.217,6.71-13.004,14.771
		c0.201,7.632,5.994,13.366,13.762,13.603c0.831,0.025,1.686-0.177,2.491-0.04c2.299,0.39,5.146-2.212,6.479-0.479
		c1.652,2.148,0.501,5.453,0.21,8.246c-0.153,1.469-0.566,2.912-0.879,4.453c-1.217-0.697-0.762-1.76-0.787-2.588
		c-0.091-3.045-2.226-2.732-4.252-2.797c-2.365-0.072-2.697,1.361-2.675,3.238c0.04,3.287,0.011,6.578,0.011,11.061
		c-4.843-4.502-8.896-8.295-12.984-12.051c-1.063-0.977-1.946-2.646-3.688-2.082c-1.952,0.633-1.19,2.527-1.203,3.895
		c-0.065,6.666,0.023,13.33-0.031,19.994c-0.021,2.488,0.464,4.127,3.511,4.188c3.106,0.061,3.566-1.553,3.478-4.074
		c-0.111-3.152-0.027-6.311-0.027-11.246c4.682,4.75,8.483,8.479,12.109,12.371c0.975,1.047-0.272,2.166-0.799,3.143
		c-14.386,26.686-36.749,41.107-66.994,42.477c-24.42,1.104-44.804-8.15-61.227-26.182C20.723,129.951,19.108,129.08,19.125,127.08z
		 M124.229,79.255c6.472,0.29,6.475,0.29,6.48-6.191c0.004-5.644-0.003-11.289,0.005-16.932c0.004-2.49,0.505-5.046-3.533-4.958
		c-3.734,0.082-3.241,2.464-3.266,4.764c-0.063,5.806-0.118,11.613-0.176,17.418c-1.075,0.017-2.149,0.033-3.225,0.05
		c-1.662-0.058-3.351-0.333-4.98-0.129c-3.876,0.487-5.391-0.841-5.042-4.921c0.367-4.295,0.033-8.646,0.101-12.972
		c0.039-2.523-0.586-4.165-3.58-4.149c-3.131,0.016-3.391,1.929-3.376,4.316c0.041,6.489,0.122,12.981-0.029,19.468
		c-0.073,3.157,0.94,4.592,4.283,4.415c4.149-0.222,8.317-0.106,12.478-0.137C121.655,79.284,122.942,79.27,124.229,79.255z
		 M47.618,51.382c-5.425-1.276-8.297,1.25-9.872,6.256c-0.747,2.374-1.563,4.903-3.92,7.096c-1.866-4.056-3.513-7.664-5.184-11.26
		c-1.549-3.333-4.749-2.75-6.9-1.823c-2.423,1.044-0.137,3.198,0.497,4.619c2.915,6.526,6.019,12.969,9.118,19.413
		c0.679,1.411,0.8,3.667,2.898,3.577c1.99-0.086,2.13-2.32,2.834-3.724c3.197-6.37,6.292-12.792,9.422-19.195
		c1.175,0.03,2.349,0.061,3.524,0.091c-0.009,6.926-0.019,13.852-0.028,20.776c-0.198,0.171-0.396,0.341-0.594,0.512
		c0.267,0.188,0.534,0.377,0.801,0.565c5.587,2.355,11.4,0.694,17.105,0.906c1.219,0.046,1.322-1.216,1.451-2.229
		c0.559-4.365-2.527-3.508-5.119-3.856c-2.292-0.308-6.229,1.882-6.494-2.203c-0.298-4.585,3.863-2.179,6-2.459
		c2.309-0.303,3.751-0.586,3.693-3.369c-0.053-2.529-1.34-3.105-3.486-2.982c-1.159,0.066-2.325,0.017-3.488,0.006
		c-1.672-0.017-3.003-0.444-2.86-2.518c0.118-1.711,1.214-2.174,2.73-2.152c1.827,0.025,3.656-0.045,5.481,0.006
		c2.014,0.057,3.537-0.143,3.585-2.83c0.049-2.73-1.183-3.422-3.626-3.351c-4.813,0.14-9.631,0.113-14.448,0.155
		C49.699,51.399,48.659,51.391,47.618,51.382z M81.68,29.875c0,1.162,0.001,2.325,0,3.488c-0.006,11.595,1.863,13.08,13.546,10.751
		c5.814-1.159,10.833-6.601,11.418-12.38c0.656-6.482-2.746-12.496-8.797-14.674c-4.884-1.759-10.583-3.022-14.937-0.479
		c-3.174,1.855-0.721,7.106-1.213,10.805C81.589,28.201,81.682,29.043,81.68,29.875z M23.665,100.172
		c0,3.824,0.042,7.65-0.016,11.473c-0.034,2.277,0.919,3.426,3.252,3.348c2.244-0.076,3.961-0.662,3.75-3.436
		c-0.076-0.99,0.121-2.014-0.029-2.988c-0.672-4.373,1.484-5.252,5.417-5.223c3.795,0.027,6.231,0.568,5.48,5.098
		c-0.134,0.811,0.033,1.664-0.024,2.492c-0.173,2.521,0.447,4.203,3.495,4.09c2.97-0.109,3.456-1.803,3.423-4.305
		c-0.089-6.816-0.229-13.643,0.044-20.449c0.167-4.172-2.205-4.305-5.048-3.824c-3.086,0.521-1.449,3.178-1.906,4.887
		c-0.511,1.912,1.317,4.533-1.43,5.732c-5.289,2.305-9.32-0.416-9.425-6.207c-0.006-0.334-0.034-0.67,0.002-0.996
		c0.272-2.541-0.778-3.584-3.404-3.563c-2.462,0.021-3.719,0.705-3.613,3.398C23.77,93.184,23.666,96.682,23.665,100.172z
		 M80.423,66.078c0.377-0.201,0.753-0.402,1.13-0.604c4.042,4.128,8.078,8.264,12.133,12.379c0.809,0.82,1.653,1.884,2.949,1.49
		c1.472-0.446,1.104-1.883,1.108-2.98c0.032-7.162-0.04-14.326,0.045-21.488c0.029-2.417-0.57-3.742-3.336-3.658
		c-2.457,0.075-3.753,0.867-3.687,3.487c0.078,3.064,0.019,6.132,0.019,10.417c-5.174-4.873-9.359-8.84-13.581-12.77
		c-0.806-0.75-1.565-1.988-2.932-1.266c-1.057,0.559-0.759,1.747-0.761,2.7c-0.015,7.33,0.057,14.659-0.018,21.989
		c-0.024,2.373,0.45,3.682,3.272,3.687c2.939,0.005,3.786-1.246,3.687-3.915C80.334,72.395,80.423,69.235,80.423,66.078z
		 M58.685,30.167c0,3.652,0.031,7.304-0.012,10.956c-0.024,2,0.755,3.172,2.87,3.176c4.315,0.009,8.631,0.021,12.947,0.005
		c2.022-0.007,2.977-1.029,3.029-3.089c0.056-2.199-0.733-3.538-3.07-3.587c-2.323-0.049-4.647-0.029-6.97-0.073
		c-1.54-0.028-1.899-1.026-1.862-2.35c0.033-1.167,0.539-1.891,1.75-1.938c1.326-0.053,2.658-0.108,3.982-0.045
		c2.484,0.12,4.212-0.403,4.142-3.474c-0.072-3.141-2.025-3.364-4.379-3.267c-0.994,0.041-1.992-0.008-2.988,0.001
		c-1.501,0.014-2.622-0.34-2.506-2.209c0.097-1.565,1.086-1.86,2.365-1.861c1.826-0.001,3.652-0.039,5.478-0.013
		c2.17,0.032,3.969-0.226,4.072-3.073c0.111-3.084-1.847-3.559-4.186-3.601c-2.986-0.055-5.994,0.2-8.959-0.061
		c-4.634-0.406-6.31,1.487-5.775,6.047C58.941,24.494,58.674,27.346,58.685,30.167z M108.798,100.465
		c0,3.49,0.01,6.979-0.004,10.469c-0.008,2.053,0.48,3.627,2.993,3.611c4.32-0.023,8.64-0.018,12.96,0.008
		c2.187,0.014,2.825-1.193,2.827-3.174c0.002-2.043-0.751-3.115-2.921-3.041c-1.991,0.068-3.987-0.008-5.981,0.012
		c-1.577,0.016-2.978,0.025-3.02-2.225c-0.044-2.369,1.266-2.754,3.171-2.678c1.327,0.053,2.659-0.035,3.987,0.002
		c2.215,0.061,2.786-1.174,2.81-3.152c0.025-2.08-0.728-3.109-2.898-3.002c-1.491,0.074-2.99-0.021-4.485,0.006
		c-1.539,0.029-2.566-0.41-2.551-2.215c0.014-1.66,0.806-2.441,2.416-2.463c1.661-0.023,3.323-0.004,4.984-0.041
		c2.103-0.045,4.513,0.516,4.491-2.969c-0.02-3.191-2.019-3.203-4.351-3.271C108.785,85.914,108.786,85.889,108.798,100.465z
		 M94.843,86.168c-4.397-0.162-7.8,1.432-9.009,5.674c-1.249,4.381,0.507,7.779,4.624,9.914c1.766,0.914,3.481,1.943,5.154,3.021
		c0.885,0.57,1.339,1.498,1,2.59c-0.383,1.232-1.506,1.264-2.456,1.139c-1.128-0.146-2.353-0.377-3.294-0.961
		c-2.399-1.482-3.638-0.42-4.678,1.691c-1.122,2.279,0.187,3.346,1.925,4.344c5.653,3.25,13.204,1.621,15.823-3.449
		c2.44-4.723,0.245-8.961-6.458-12.463c-0.147-0.078-0.323-0.115-0.449-0.217c-1.544-1.244-5.106-1.584-3.898-4.143
		c1.133-2.4,3.806-0.645,5.645,0.379c2.257,1.258,3.444-0.014,4.398-1.732c1.142-2.059,0.301-3.463-1.68-4.402
		C99.343,86.535,97.099,86.029,94.843,86.168z M66.565,100.129c0.003,15.168,0.003,15.168,13.472,14.367
		c0.497-0.029,0.997-0.01,1.492-0.051c2.115-0.178,2.083-1.725,2.094-3.271c0.009-1.471-0.32-2.67-2.082-2.773
		c-0.993-0.059-2.013-0.188-2.98-0.031c-4.245,0.686-5.472-1.158-5.158-5.238c0.342-4.453,0.043-8.951,0.079-13.43
		c0.021-2.631-1.375-3.363-3.788-3.367c-2.425-0.002-3.194,1.102-3.142,3.346C66.633,93.16,66.573,96.646,66.565,100.129z
		 M60.695,100.418c0-3.498-0.09-7,0.031-10.494c0.086-2.49-0.719-3.654-3.408-3.607c-2.611,0.047-3.547,1.195-3.53,3.656
		c0.048,6.996,0.05,13.992,0.006,20.988c-0.016,2.486,0.971,3.564,3.567,3.596c2.722,0.035,3.449-1.189,3.365-3.646
		C60.607,107.416,60.695,103.916,60.695,100.418z"/>
	<path fill-rule="evenodd" clip-rule="evenodd" fill="#68BC9A" d="M309.355,15.577c-2.203,0.633-4.207,1.229-3.838,4.093
		c0.342,2.638,2.004,2.719,3.902,2.707c2.52-0.018,2.406,1.744,2.408,3.449c0.006,4.497,0.02,8.993,0.004,13.49
		c-0.008,2.564-0.307,5.118,3.629,5.029c3.639-0.083,3.299-2.475,3.299-4.831c-0.002-5.255,0-10.512,1.141-16.363
		c2.1,2.212,4.297,4.339,6.281,6.65c20.473,23.832,24.189,58.698,9.441,86.424c-1.955,3.676-4.254,5.141-8.547,5.111
		c-28.477-0.201-56.953-0.105-85.432-0.102c-1.332,0-2.666-0.01-3.996,0.055c-1.746,0.086-2.148,1.24-2.109,2.752
		c0.035,1.334,0.527,2.291,1.965,2.391c1.326,0.09,2.662,0.066,3.994,0.066c27.145,0.002,54.291-0.014,81.436,0.041
		c1.537,0.004,3.727-0.953,4.494,0.932c0.604,1.48-1.266,2.557-2.244,3.602c-21.699,23.143-48.291,31.695-78.848,23.627
		c-30.463-8.043-49.68-28.645-56.357-59.381c-9.125-41.996,19.008-83.215,61.477-91.705C270.881-0.27,295.865,4.784,309.355,15.577z
		 M199.014,57.547c0.02,5.811,0.084,11.622,0.033,17.432c-0.021,2.526,0,4.471,3.539,4.509c3.496,0.039,4.244-1.445,4.082-4.495
		c-0.102-1.882-0.52-3.876,0.607-6.308c2.412,3.13,4.676,5.892,6.744,8.796c2.125,2.988,5.668,2.697,7.553,1.423
		c2.713-1.835-1.131-3.268-1.756-5.025c-0.109-0.303-0.348-0.564-0.549-0.828c-6.523-8.556-6.51-8.543,0.158-16.953
		c0.971-1.226,3.055-2.524,1.744-4.162c-1.154-1.442-3.443-0.763-5.209-0.493c-1.588,0.242-2.35,1.726-3.275,2.883
		c-1.717,2.144-3.43,4.292-5.141,6.433c-2.984-2.867,2.699-9.361-4.959-9.553c-4.072-0.103-3.42,2.599-3.576,4.996
		C198.088,56.654,198.09,57.102,199.014,57.547z M237.598,50.562c-7.717,0.006-14.65,6.809-14.84,14.562
		c-0.191,7.798,7.049,15.072,14.93,15.004c7.777-0.068,14.734-6.922,14.811-14.589C252.578,57.632,245.537,50.555,237.598,50.562z
		 M254.422,115.201c7.891,0.088,14.813-6.521,15.055-14.373c0.244-7.91-6.859-15.021-14.945-14.963
		c-7.955,0.059-14.652,6.676-14.787,14.609C239.613,108.158,246.545,115.113,254.422,115.201z M255.549,30.128
		c0,3.662,0.01,7.323-0.006,10.985c-0.006,1.612,0.195,3.166,2.254,3.144c4.303-0.047,8.674,0.693,12.881-0.771
		c10.424-3.628,13.006-16.131,5.029-23.728c-4.178-3.978-9.369-3.643-14.477-4.107c-4.227-0.385-6.262,0.901-5.754,5.496
		C255.805,24.107,255.539,27.133,255.549,30.128z M299.676,100.381c0,1.166,0,2.332,0,3.498
		c0.004,11.975,0.004,11.975,12.256,10.654c7.738-0.836,13.246-7.418,12.713-15.197c-0.615-8.971-8.02-13.992-21.031-12.797
		c-8.473,0.777-1.877,8.078-3.898,11.865C299.438,98.922,299.676,99.715,299.676,100.381z M276.684,65.266
		c0,3.65-0.012,7.301,0.006,10.952c0.006,1.327-0.02,2.558,1.705,3.125c5.902,1.943,15.949-0.556,19.85-5.066
		c4.033-4.665,4.551-10.983,1.318-16.138c-3.752-5.983-13.762-9.768-20.875-6.575c-4.541,2.038-1.111,7.441-1.99,11.219
		C276.514,63.57,276.67,64.436,276.684,65.266z M282.994,86.365c-1.906,0-2.93,0.143-3.898-0.025
		c-4.809-0.838-5.93,1.43-5.695,5.842c0.334,6.301,0.125,12.635,0.066,18.953c-0.02,2.158,0.514,3.461,3.027,3.461
		c2.357,0,3.914-0.592,3.887-3.275c-0.014-1.496-0.01-2.994,0.043-4.49c0.033-0.945-0.23-2.201,1.086-2.43
		c1.18-0.205,1.656,0.902,2.109,1.764c1.008,1.91,2.045,3.814,2.914,5.789c1.568,3.564,4.869,3.393,7.123,2.102
		c2.328-1.334-0.17-3.553-1.1-4.984c-2.117-3.262-2.967-5.682,0.752-8.789c3.129-2.615,2.715-6.604,0.43-10.012
		C290.887,86.02,286.479,86.154,282.994,86.365z M217.443,100.412c0,3.662,0.016,7.324-0.006,10.986
		c-0.012,1.904,0.498,3.256,2.773,3.199c3.324-0.084,6.697,0.23,9.971-0.213c6.383-0.867,8.984-7.221,5.021-12.121
		c-1.191-1.475-1.76-2.145-0.422-4.055c3.225-4.609,1.699-9.133-3.621-11.068c-4.137-1.506-8.953-1.838-12.635-0.104
		c-2.705,1.275-0.656,5.826-1.061,8.887C217.27,97.396,217.432,98.914,217.443,100.412z M284.574,29.776
		c0,3.667,0.09,7.335-0.029,10.998c-0.084,2.549,0.904,3.652,3.494,3.583c3.998-0.105,8-0.081,11.998-0.019
		c2.334,0.036,3.387-1.017,3.271-3.313c-0.105-2.089-0.84-3.526-3.281-3.445c-1.996,0.065-3.998-0.012-5.998-0.005
		c-1.6,0.006-2.5-0.619-2.424-2.37c0.066-1.541,0.971-1.958,2.299-1.963c1.5-0.006,2.998-0.028,4.498-0.045
		c2.008-0.021,3.059-0.932,3.074-3.045c0.016-2.139-0.641-3.599-3.041-3.651c-1.334-0.028-2.666-0.006-4-0.021
		c-1.359-0.017-2.752,0.038-2.816-1.925c-0.063-1.889,1.146-2.158,2.611-2.159c1.834,0,3.67-0.065,5.498,0.01
		c2.168,0.089,3.539-0.568,3.568-3.023c0.031-2.516-1.18-3.676-3.635-3.678c-3.666-0.003-7.336,0.069-10.998-0.045
		c-2.949-0.092-4.279,1.063-4.131,4.12C284.693,23.104,284.57,26.443,284.574,29.776z M305.822,65.083
		c-0.008,15.286-0.01,15.255,15.17,14.346c2.08-0.124,3.514-0.388,3.549-2.954c0.039-2.761-1.398-3.388-3.768-3.265
		c-1.822,0.096-3.65-0.005-5.479-0.001c-1.879,0.004-2.643-0.928-2.631-2.789c0.012-1.918,1.215-2.088,2.646-2.088
		c1.494,0,2.988-0.042,4.482-0.005c2.217,0.054,2.779-1.183,2.799-3.161c0.02-2.095-0.813-3.086-2.934-3.011
		c-1.326,0.047-2.654-0.019-3.982-0.008c-1.664,0.014-2.941-0.358-3.008-2.407c-0.07-2.187,1.313-2.331,2.938-2.307
		c1.992,0.029,3.986-0.047,5.977,0.014c2.141,0.065,2.994-0.953,2.922-3.025c-0.07-1.963-0.877-2.889-2.955-3.191
		c-14.42-2.096-15.725-1.026-15.725,13.353C305.824,64.751,305.824,64.917,305.822,65.083z M256.506,65.32
		c0.006,14.805,0.006,14.805,13.355,14.075c0.498-0.027,0.998-0.011,1.496-0.043c1.734-0.112,2.158-1.248,2.146-2.745
		c-0.01-1.542,0.031-3.122-2.074-3.312c-0.99-0.09-2.016-0.194-2.986-0.039c-4.324,0.691-5.453-1.303-5.154-5.326
		c0.32-4.3,0.033-8.645,0.084-12.968c0.029-2.405-0.811-3.7-3.455-3.74c-2.646-0.04-3.521,1.123-3.441,3.621
		C256.588,58.331,256.504,61.827,256.506,65.32z"/>
	<path fill-rule="evenodd" clip-rule="evenodd" fill="#6BBD9B" d="M154.073,71.675c-5.104,2.428-8.327,1.018-10.469-2.362
		c-1.91-3.016-1.741-6.421,0.87-9.174c2.72-2.867,5.956-3.345,9.499-1.444c1.62,0.869,2.502,2.195,2.485,4.001
		c-0.022,2.484-2.022,1.679-3.315,1.75c-1.7,0.093-2.795,0.624-3.249,2.401C149.168,69.69,151.521,70.343,154.073,71.675z"/>
	<path fill-rule="evenodd" clip-rule="evenodd" fill="#68BC9A" d="M91.18,22.416c5.047-0.094,8.448,3.266,8.352,7.75
		c-0.1,4.6-3.516,7.721-8.078,7.382c-0.165-0.013-0.368,0.057-0.492-0.016c-5.212-3.085-1.14-7.979-2.248-11.901
		C88.153,23.646,88.964,21.897,91.18,22.416z"/>
	<path fill-rule="evenodd" clip-rule="evenodd" fill="#68BC9A" d="M244.826,65.276c0.035,4.351-2.695,7.202-6.99,7.301
		c-4.279,0.098-7.275-2.711-7.398-6.937c-0.135-4.567,2.768-7.564,7.285-7.523C242.135,58.157,244.791,60.834,244.826,65.276z"/>
	<path fill-rule="evenodd" clip-rule="evenodd" fill="#69BC9A" d="M261.832,100.629c-0.029,4.072-3.23,7.395-7.16,7.434
		c-3.943,0.039-7.207-3.242-7.262-7.309c-0.063-4.502,3.057-7.695,7.398-7.576C258.973,93.295,261.863,96.361,261.832,100.629z"/>
	<path fill-rule="evenodd" clip-rule="evenodd" fill="#68BC9A" d="M262.449,29.625c0.002-0.666-0.088-1.346,0.018-1.996
		c0.277-1.696-0.973-4.02,1.123-4.948c2.014-0.892,4.301-0.344,6.229,0.83c4.326,2.634,4.215,10.725-0.145,13.281
		c-4.139,2.428-7.189,0.667-7.225-4.17C262.443,31.624,262.449,30.625,262.449,29.625z"/>
	<path fill-rule="evenodd" clip-rule="evenodd" fill="#6BBD9B" d="M306.59,99.578c0-0.83-0.104-1.676,0.021-2.484
		c0.262-1.709-1.023-4.102,0.975-4.998c2.354-1.057,4.943-0.252,7.049,1.264c3.795,2.734,3.924,9.145,0.307,12.246
		c-2.027,1.738-4.551,2.459-6.975,1.658c-2.543-0.84-0.994-3.418-1.348-5.201C306.459,101.264,306.592,100.408,306.59,99.578z"/>
	<path fill-rule="evenodd" clip-rule="evenodd" fill="#6BBD9B" d="M283.506,64.079c0-0.66-0.098-1.338,0.02-1.978
		c0.328-1.81-1.104-4.436,1.219-5.274c2.73-0.985,5.555-0.208,7.701,2.041c2.711,2.842,2.834,7.952,0.236,10.904
		c-2.049,2.328-4.82,3.202-7.635,2.36c-2.873-0.859-1.115-3.667-1.514-5.581C283.367,65.759,283.506,64.905,283.506,64.079z"/>
	<path fill-rule="evenodd" clip-rule="evenodd" fill="#6BBD9B" d="M283.396,97.445c-1.848,0.221-3.047-0.447-3.057-2.93
		c-0.008-2.561,1.354-2.941,3.434-2.895c2.08,0.045,4.379,0.209,4.486,2.674C288.383,97.094,285.984,97.449,283.396,97.445z"/>
	<path fill-rule="evenodd" clip-rule="evenodd" fill="#78C3A4" d="M229.35,94.088c-0.342,2.025-1.566,2.529-3.24,2.52
		c-1.775-0.01-2.26-1.035-2.174-2.559c0.086-1.533,0.771-2.445,2.461-2.393C228.145,91.711,229.119,92.547,229.35,94.088z"/>
	<path fill-rule="evenodd" clip-rule="evenodd" fill="#68BC9A" d="M229.68,105.264c-0.32,1.887-1.68,2.199-3.305,2.207
		c-1.904,0.012-2.045-1.215-2.049-2.662c-0.002-1.709,0.846-2.416,2.48-2.26C228.439,102.705,229.713,103.283,229.68,105.264z"/>
</g>
</svg>
