<?xml version="1.0" encoding="utf-8"?>
<!-- Generator: Adobe Illustrator 16.0.0, SVG Export Plug-In . SVG Version: 6.00 Build 0)  -->
<!DOCTYPE svg PUBLIC "-//W3C//DTD SVG 1.1//EN" "http://www.w3.org/Graphics/SVG/1.1/DTD/svg11.dtd">
<svg version="1.1" id="Layer_1" xmlns="http://www.w3.org/2000/svg" xmlns:xlink="http://www.w3.org/1999/xlink" x="0px" y="0px"
	 width="346.957px" height="159.98px" viewBox="0 0 346.957 159.98" enable-background="new 0 0 346.957 159.98"
	 xml:space="preserve">
<g>
	<path fill-rule="evenodd" clip-rule="evenodd" fill="#FEFEFE" d="M173.979,160.979c-56.327,0-112.653-0.04-168.979,0.097
		c-3.424,0.009-4.106-0.672-4.097-4.096C1.044,106.319,1.044,55.66,0.902,5C0.893,1.575,1.576,0.901,5,0.904
		c112.986,0.115,225.971,0.115,338.958,0c3.424-0.003,4.106,0.671,4.097,4.095c-0.142,50.66-0.142,101.32,0,151.981
		c0.01,3.424-0.673,4.104-4.097,4.096C287.298,160.94,230.638,160.979,173.979,160.979z"/>
	<path fill-rule="evenodd" clip-rule="evenodd" fill="#65BB98" d="M32.476,32.928c2.012,3.707,3.708,6.734,5.309,9.811
		c1.295,2.489,2.599,2.305,3.85,0.066c1.743-3.118,3.377-6.296,5.744-10.733c0.723,4.239,1.343,6.921,1.596,9.636
		c0.226,2.433,1.483,3.081,3.653,2.94c2.68-0.174,2.744-1.874,2.408-3.879c-1.154-6.887-2.268-13.782-3.487-20.658
		c-0.187-1.05-0.026-2.589-1.481-2.881c-1.51-0.304-1.801,1.182-2.331,2.145c-2.087,3.792-4.174,7.587-6.174,11.426
		c-1.234,2.368-2.339,2.699-3.586,0.055c-0.355-0.753-0.766-1.479-1.156-2.214c-4.863-9.165-4.864-9.165,4.231-14.668
		c39.433-23.86,90.839-8.76,111.247,32.616c1.719,3.485,2.52,5.26-2.895,5.45c-8.214,0.289-13.517,7.651-12.546,16.086
		c0.9,7.822,8.495,12.961,17.358,11.747c5.945-0.814,6.04-0.81,5.722,5.208c-0.178,3.375-0.734,6.729-1.166,10.49
		c-2.019-1.781-1.169-3.477-1.092-5.023c0.111-2.229-0.627-3.432-3.101-3.408c-2.216,0.022-3.48,0.673-3.426,3.124
		c0.075,3.416,0.019,6.835,0.019,10.252c-0.404,0.182-0.808,0.363-1.211,0.546c-4-3.867-7.965-7.771-12.024-11.575
		c-1.001-0.938-1.768-2.87-3.582-2.006c-1.549,0.737-0.637,2.396-0.644,3.636c-0.038,6.663,0.014,13.328-0.006,19.991
		c-0.006,2.153,0.063,3.998,3.062,3.939c2.884-0.057,3.154-1.81,3.134-3.998c-0.023-2.665-0.024-5.331,0.026-7.995
		c0.039-2.005,0.985-2.461,2.428-1.068c3.235,3.123,6.396,6.324,9.546,9.534c1.855,1.89,0.066,3.475-0.719,4.92
		c-11.553,21.266-29.089,35.213-52.739,40.06c-28.667,5.876-53.683-1.979-74.289-23.058c-0.465-0.477-0.968-0.938-1.332-1.487
		c-0.894-1.345-2.995-2.495-2.391-4.075c0.699-1.827,2.951-0.838,4.491-0.841c27.154-0.054,54.308-0.037,81.461-0.041
		c1.331,0,2.667,0.003,3.992-0.099c1.479-0.113,1.876-1.165,1.867-2.456c-0.009-1.314-0.504-2.294-1.956-2.387
		c-1.328-0.086-2.663-0.082-3.994-0.082c-28.82-0.006-57.639-0.043-86.459,0.048c-2.949,0.009-4.866-0.686-6.489-3.375
		C-3.301,91.066,1.552,50.348,24.362,27.391c0.443-0.446,1.009-0.769,2.495-1.88c-0.875,5.722-1.548,10.481-2.355,15.218
		c-0.292,1.71-0.919,3.438,1.571,3.858c2.211,0.373,3.868-0.181,4.475-2.747C31.186,39.142,30.353,36.162,32.476,32.928z"/>
	<path fill-rule="evenodd" clip-rule="evenodd" fill="#66BB98" d="M319.962,22.81c9.865,8.196,16.198,17.611,20.442,28.351
		c8.889,22.488,7.639,44.548-3.415,66.108c-1.842,3.594-4.163,4.817-8.213,4.792c-28.312-0.181-56.626-0.097-84.939-0.092
		c-1.498,0-3-0.013-4.493,0.088c-1.323,0.089-2.149,0.828-2.224,2.219c-0.085,1.609,0.715,2.529,2.303,2.644
		c1.326,0.097,2.662,0.077,3.994,0.077c26.814,0.003,53.629,0.002,80.443,0.002c1.803,0,3.605,0,5.611,0
		c-7.807,14.61-34.894,33.361-67.899,31.246c-31.334-2.009-61.688-26.559-69.512-57.83c-8.613-34.431,5.847-69.077,35.763-86.911
		c28.362-16.907,64.882-12.192,83.615,3.096c-2.117,0.514-4.641,0.383-4.352,3.529c0.281,3.059,2.483,2.583,4.41,2.683
		c2.508,0.13,2.266,1.966,2.272,3.615c0.021,4.831,0.084,9.662-0.025,14.49c-0.055,2.418,0.605,3.82,3.309,3.768
		c2.538-0.048,2.947-1.53,2.928-3.626C319.926,35.311,319.962,29.563,319.962,22.81z"/>
	<path fill-rule="evenodd" clip-rule="evenodd" fill="#6ABD9B" d="M151.796,57.987c1.706,0.014,3.921,0.644,5.156,2.46
		c1.446,2.13,2.534,4.745-1.746,5.242c-1.412,0.164-3.162-0.245-3.388,1.946c-0.161,1.562-0.086,3.002,1.882,3.452
		c0.707,0.161,1.164,0.713,0.893,1.458c-0.407,1.121-1.456,1.16-2.455,1.272c-4.206,0.475-8.132-2.869-8.399-7.176
		C143.447,61.914,146.743,58.118,151.796,57.987z"/>
	<path fill-rule="evenodd" clip-rule="evenodd" fill="#FBFDFC" d="M83.281,30.769c0-0.832-0.164-1.704,0.028-2.49
		c0.906-3.727-2.645-9.207,2.293-11.062c8.021-3.015,17.221,0.768,20.572,7.152c4.141,7.887-0.222,17.587-8.876,19.739
		C84.891,47.19,83.279,45.657,83.281,30.769z"/>
	<path fill-rule="evenodd" clip-rule="evenodd" fill="#FAFCFC" d="M49.169,100.92c-0.001,3.658-0.075,7.317,0.026,10.973
		c0.065,2.383-0.95,3.22-3.274,3.169c-2.157-0.046-3.028-0.972-2.901-3.038c0.03-0.496,0.004-0.997-0.006-1.496
		c-0.125-6.353-2.951-8.386-9.244-6.524c-3.347,0.991-1.553,3.854-1.915,5.895c-0.375,2.111,0.808,4.963-2.966,5.131
		c-2.137,0.096-3.625-0.427-3.626-2.906c-0.003-7.315-0.001-14.63-0.016-21.945c-0.004-2.027,0.863-3.038,3-3.035
		c2.105,0.003,3.646,0.455,3.563,2.978c-0.017,0.499-0.001,0.998,0.013,1.497c0.166,6.021,3.5,8.313,9.443,6.292
		c3.199-1.087,1.341-3.953,1.701-6.001c0.373-2.118-0.781-4.953,3.151-4.795c2.002,0.08,3.124,0.6,3.073,2.835
		C49.108,93.604,49.17,97.263,49.169,100.92z"/>
	<path fill-rule="evenodd" clip-rule="evenodd" fill="#FCFDFD" d="M92.792,65.408c0-3.427,0.058-6.854-0.02-10.28
		c-0.055-2.421,1.136-3.158,3.381-3.127c2.216,0.029,2.852,1.147,2.844,3.131c-0.029,7.308,0.005,14.616-0.01,21.924
		c-0.002,0.95,0.256,2.164-0.956,2.555c-1.106,0.356-1.809-0.596-2.49-1.287c-4.378-4.44-8.737-8.897-13.103-13.349
		c-0.416,0.189-0.831,0.379-1.246,0.567c0,3.736-0.085,7.474,0.03,11.205c0.075,2.422-0.994,3.125-3.277,3.148
		c-2.632,0.026-2.935-1.411-2.921-3.495c0.047-7.141-0.003-14.283,0.025-21.425c0.004-0.938-0.346-2.123,0.706-2.702
		c1.337-0.736,2.204,0.364,2.945,1.181c4.002,4.415,7.944,8.886,11.906,13.337C91.335,66.33,92.063,65.869,92.792,65.408z"/>
	<path fill-rule="evenodd" clip-rule="evenodd" fill="#FAFCFB" d="M51.982,66.066c0-0.166,0-0.332,0-0.498
		C51.978,50.69,51.974,50.737,66.83,51.97c2.267,0.188,3.301,0.851,3.26,3.246c-0.04,2.333-1.323,2.743-3.216,2.714
		c-2.16-0.032-4.32,0.01-6.479,0.033c-1.354,0.015-2.192,0.569-2.208,2.063c-0.016,1.521,0.455,2.65,2.16,2.736
		c1.658,0.083,3.322,0.09,4.982,0.067c1.853-0.026,2.709,0.789,2.711,2.689c0.001,1.945-0.552,3.253-2.763,3.252
		c-1.495,0-2.99,0.03-4.486,0.032c-1.489,0.002-2.596,0.377-2.622,2.192c-0.026,1.8,0.667,2.87,2.567,2.898
		c2.16,0.032,4.321,0.09,6.479,0.04c2.187-0.049,2.836,1.077,2.866,3.093c0.033,2.222-1.036,2.969-3.058,2.831
		c-0.165-0.012-0.333-0.007-0.498,0.002C51.983,80.685,51.983,80.685,51.982,66.066z"/>
	<path fill-rule="evenodd" clip-rule="evenodd" fill="#FAFCFB" d="M69.336,16.967c2.165,0,4.33-0.014,6.495,0.005
		c1.625,0.014,2.388,0.868,2.434,2.489c0.047,1.688-0.401,3.071-2.296,3.222c-2.154,0.172-4.326,0.151-6.49,0.14
		c-1.837-0.01-2.792,0.726-2.716,2.667c0.07,1.772,1.147,2.21,2.649,2.222c1.499,0.011,2.997,0.05,4.496,0.067
		c2.093,0.023,2.317,1.399,2.312,3.052c-0.006,1.686-0.799,2.415-2.441,2.397c-1.499-0.017-2.998,0.059-4.496,0.038
		c-1.963-0.026-2.567,1.026-2.55,2.836c0.018,1.86,0.783,2.771,2.682,2.742c1.999-0.03,3.997,0.033,5.996,0.022
		c1.777-0.009,2.799,0.673,2.854,2.616c0.058,2.054-0.786,3.171-2.872,3.185c-4.164,0.027-8.327,0.03-12.49,0.022
		c-2.232-0.004-2.712-1.4-2.702-3.317c0.036-6.995,0.061-13.991-0.011-20.986c-0.027-2.608,1.167-3.586,3.651-3.468
		c1.828,0.086,3.664,0.017,5.496,0.017C69.336,16.945,69.336,16.956,69.336,16.967z"/>
	<path fill-rule="evenodd" clip-rule="evenodd" fill="#FBFDFC" d="M110.737,100.818c-0.004-0.166-0.004-0.332-0.004-0.498
		c-0.001-14.488-0.003-14.457,14.661-13.203c1.899,0.163,3.234,0.511,3.285,2.736c0.052,2.28-0.928,3.369-3.28,3.267
		c-1.989-0.086-3.984,0.018-5.977-0.008c-1.576-0.02-2.481,0.548-2.535,2.282c-0.06,1.945,0.851,2.706,2.699,2.622
		c0.829-0.038,1.663-0.047,2.49,0.005c2.03,0.125,4.621-0.676,4.678,2.797c0.063,3.771-2.723,2.979-4.929,3.104
		c-0.828,0.047-1.661,0.043-2.49,0.021c-2.047-0.057-2.452,1.17-2.444,2.9c0.009,1.789,0.996,2.264,2.542,2.253
		c2.159-0.017,4.318,0.041,6.476,0.011c1.866-0.025,2.734,0.885,2.766,2.707c0.035,1.93-0.601,3.224-2.812,3.21
		c-4.151-0.025-8.303-0.05-12.454-0.001c-2.325,0.027-2.696-1.371-2.678-3.244C110.766,108.125,110.741,104.473,110.737,100.818z"/>
	<path fill-rule="evenodd" clip-rule="evenodd" fill="#FBFCFC" d="M96.37,115.135c-2.581,0.226-4.851-0.197-6.921-1.42
		c-1.343-0.792-2.58-1.721-1.564-3.573c0.848-1.545,1.741-2.944,3.87-1.716c0.857,0.494,1.8,0.879,2.748,1.171
		c1.532,0.472,3.067,0.457,3.917-1.171c0.908-1.738-0.274-2.916-1.537-3.738c-2.084-1.359-4.443-2.318-6.439-3.783
		c-2.769-2.032-4.086-4.89-3.009-8.334c0.979-3.129,3.3-5.039,6.529-5.446c3.713-0.469,7.354-0.113,10.272,2.642
		c0.89,0.84,0.544,1.804-0.132,2.674c-0.836,1.075-1.618,2.032-3.291,1.59c-2.27-0.6-5.385-3.862-6.652,0.066
		c-0.99,3.07,3.214,3.588,5.369,4.807c7.017,3.973,8.387,9.868,3.171,14.348C100.817,114.866,98.601,115.377,96.37,115.135z"/>
	<path fill-rule="evenodd" clip-rule="evenodd" fill="#FBFCFC" d="M35.554,66.02c2.583-3.481,3.816-7.269,5.488-10.823
		c0.7-1.49,1.175-3.251,3.334-3.144c1.303,0.064,2.997-0.189,3.806,0.516c1.177,1.025-0.171,2.422-0.696,3.55
		c-3.289,7.077-6.618,14.136-9.997,21.17c-0.449,0.936-0.46,2.553-2.104,2.307c-1.107-0.165-1.396-1.327-1.812-2.213
		c-3.251-6.91-6.544-13.802-9.676-20.766c-0.588-1.309-2.737-3.196-0.665-4.22c2.119-1.049,4.888-0.982,6.454,1.869
		C31.735,57.998,32.718,62.278,35.554,66.02z"/>
	<path fill-rule="evenodd" clip-rule="evenodd" fill="#F4FAF7" d="M105.135,65.927c0.003-3.49,0.026-6.979-0.005-10.469
		c-0.019-2.162,0.722-3.438,3.147-3.483c2.586-0.048,3.576,1.125,3.542,3.612c-0.063,4.652,0.197,9.318-0.08,13.955
		c-0.216,3.613,1.21,4.81,4.596,4.405c1.145-0.137,2.327-0.036,3.485,0.041c2.135,0.141,2.079,1.72,2.092,3.265
		c0.014,1.541-0.492,2.591-2.233,2.608c-0.499,0.005-0.997,0.005-1.495,0.026C105.132,80.458,105.132,80.459,105.135,65.927z"/>
	<path fill-rule="evenodd" clip-rule="evenodd" fill="#F6FAF8" d="M68.057,100.945c0.002-3.496,0.04-6.993-0.012-10.488
		c-0.034-2.264,0.888-3.313,3.251-3.352c2.575-0.043,3.027,1.344,2.998,3.475c-0.064,4.661,0.166,9.333-0.084,13.981
		c-0.183,3.401,0.82,5.031,4.418,4.548c1.143-0.153,2.327-0.004,3.492,0.003c1.852,0.011,2.717,0.938,2.702,2.79
		c-0.014,1.683-0.457,3.044-2.424,3.073c-3.994,0.06-7.989,0.042-11.984,0.026c-2.065-0.008-2.364-1.431-2.361-3.068
		C68.06,108.271,68.055,104.608,68.057,100.945z"/>
	<path fill-rule="evenodd" clip-rule="evenodd" fill="#F9FCFB" d="M131.943,66.47c-0.002,3.331-0.06,6.662,0.018,9.99
		c0.05,2.146-0.423,3.467-3,3.446c-2.34-0.02-3.265-0.842-3.236-3.214c0.088-7.158,0.079-14.319,0.006-21.478
		c-0.024-2.347,0.904-3.238,3.25-3.24c2.575-0.001,3.021,1.387,2.983,3.506C131.898,59.144,131.945,62.808,131.943,66.47z"/>
	<path fill-rule="evenodd" clip-rule="evenodd" fill="#F8FBF9" d="M55.701,100.568c-0.003-3.493,0.045-6.988-0.021-10.48
		c-0.04-2.108,0.84-2.997,2.971-2.964c1.962,0.031,3.244,0.603,3.244,2.79c0.003,7.486-0.012,14.972,0.014,22.458
		c0.008,2.294-1.348,2.671-3.263,2.686c-2.141,0.017-2.985-0.937-2.957-3.011C55.742,108.221,55.704,104.395,55.701,100.568z"/>
	<path fill-rule="evenodd" clip-rule="evenodd" fill="#FBFDFC" d="M278.202,65.975c-0.003-3.488-0.013-6.976,0.002-10.463
		c0.006-1.336,0.028-2.61,1.581-3.309c7.179-3.232,19.284,1.616,22.083,8.893c3.08,8.008-1.969,17.031-10.658,18.484
		c-3.397,0.568-6.952,0.209-10.436,0.242c-2.338,0.022-2.584-1.577-2.575-3.385C278.217,72.95,278.204,69.462,278.202,65.975z"/>
	<path fill-rule="evenodd" clip-rule="evenodd" fill="#FCFDFD" d="M253.178,65.859c0.066,8.027-6.017,14.155-14.086,14.189
		c-8.128,0.034-14.22-5.948-14.245-13.99c-0.026-8.116,5.946-14.168,14.056-14.243C246.965,51.74,253.11,57.786,253.178,65.859z"/>
	<path fill-rule="evenodd" clip-rule="evenodd" fill="#FBFCFC" d="M301.264,102.165c0-1.162-0.163-2.352,0.029-3.481
		c0.651-3.828-2.067-9.123,2.276-11.229c5.982-2.901,15.68,0.459,19.503,5.439c3.392,4.419,3.659,10.646,0.663,15.435
		c-3.534,5.647-14.513,9.11-20.586,6.581c-1.407-0.586-1.464-1.649-1.475-2.803c-0.029-3.313-0.01-6.626-0.01-9.938
		C301.531,102.167,301.397,102.166,301.264,102.165z"/>
	<path fill-rule="evenodd" clip-rule="evenodd" fill="#FCFDFC" d="M256.014,86.988c8.04,0.015,14.117,6.132,14.103,14.196
		c-0.015,8.159-5.931,14.003-14.171,13.997c-8.19-0.006-14.189-5.963-14.15-14.05C241.834,93.129,248.021,86.975,256.014,86.988z"/>
	<path fill-rule="evenodd" clip-rule="evenodd" fill="#FCFDFC" d="M257.056,30.712c0-0.998-0.135-2.017,0.024-2.989
		c0.571-3.484-2.011-8.567,1.331-10.162c3.937-1.878,9.18-1.28,13.67,0.13c6.094,1.915,10.143,8.416,9.367,14.306
		c-0.894,6.779-5.674,11.515-12.404,12.288c-11.983,1.375-11.983,1.375-11.987-10.58C257.056,32.708,257.057,31.71,257.056,30.712z"
		/>
	<path fill-rule="evenodd" clip-rule="evenodd" fill="#FBFCFC" d="M218.975,101.126c-0.004-1.661-0.189-3.348,0.036-4.976
		c0.41-2.95-1.76-7.502,1.464-8.526c4.2-1.334,9.27-1.452,13.527,1.124c4.002,2.421,4.554,6.104,1.671,10.092
		c-0.886,1.226-2.273,2.077-0.101,3.465c2.829,1.806,3.075,4.721,2.159,7.541c-1.016,3.125-3.653,4.728-6.815,5.044
		c-2.797,0.28-5.644,0.02-8.46,0.163c-2.552,0.131-3.618-0.857-3.513-3.466C219.085,108.104,218.979,104.613,218.975,101.126z"/>
	<path fill-rule="evenodd" clip-rule="evenodd" fill="#FAFCFB" d="M274.961,100.841c0.001-0.831,0.001-1.662,0.001-2.492
		c-0.001-11.531,2.761-13.685,14.3-10.972c3.251,0.765,5.851,2.537,6.638,6.024c0.733,3.248,0.54,6.512-2.493,8.519
		c-2.637,1.746-2.575,3.387-0.858,5.622c0.698,0.909,1.281,1.981,1.625,3.071c0.429,1.363,2.858,3.019,0.49,4.117
		c-1.717,0.796-4.398,1.187-5.814-1.189c-1.357-2.277-2.432-4.722-3.67-7.073c-0.527-1.001-0.953-2.313-2.438-2.071
		c-1.843,0.3-1.549,1.869-1.594,3.154c-0.045,1.328-0.049,2.66-0.006,3.988c0.069,2.075-0.353,3.493-2.951,3.531
		c-2.818,0.043-3.311-1.432-3.252-3.762C275.024,107.821,274.96,104.331,274.961,100.841z"/>
	<path fill-rule="evenodd" clip-rule="evenodd" fill="#FAFCFC" d="M208.581,68.677c-1.241,2.987-0.784,5.153-0.758,7.243
		c0.033,2.638-0.732,3.978-3.677,3.998c-2.903,0.02-3.223-1.505-3.202-3.785c0.061-6.664,0.064-13.328,0-19.992
		c-0.024-2.499,0.458-4.195,3.519-4.154c3.158,0.042,3.404,1.968,3.329,4.345c-0.053,1.642-0.011,3.289-0.011,5.508
		c2.831-1.368,3.992-3.578,5.508-5.417c1.262-1.531,2.264-3.439,4.229-4.124c1.554-0.542,3.685-0.945,4.756,0.277
		c1.274,1.455-0.733,2.641-1.546,3.734c-6.918,9.311-6.881,9.247,0.203,18.454c1.002,1.302,4.069,2.938,1.839,4.631
		c-1.636,1.243-4.894,1.327-6.795-1.044C213.598,75.382,211.348,72.311,208.581,68.677z"/>
	<path fill-rule="evenodd" clip-rule="evenodd" fill="#F9FCFB" d="M286.111,30.565c-0.006-14.495-0.008-14.473,14.443-13.659
		c1.982,0.111,3.563,0.151,3.627,2.842c0.072,3.009-1.794,2.76-3.863,3.164c-2.554,0.498-7.045-2.249-7.321,2.25
		c-0.28,4.56,4.211,2.002,6.555,2.511c1.801,0.392,2.608,1.068,2.621,2.896c0.013,1.909-0.874,2.706-2.719,2.673
		c-1.496-0.027-2.993,0.017-4.49,0.038c-1.541,0.023-2.594,0.518-2.376,2.354c0.177,1.498,0.111,3.135,2.281,3.168
		c2.161,0.034,4.324,0.104,6.484,0.052c2.22-0.053,2.829,1.11,2.806,3.116c-0.021,1.876-0.785,2.746-2.669,2.734
		c-4.157-0.024-8.315-0.003-12.473,0.003c-2.519,0.004-2.944-1.599-2.917-3.664C286.147,37.551,286.113,34.058,286.111,30.565z"/>
	<path fill-rule="evenodd" clip-rule="evenodd" fill="#FBFDFC" d="M307.724,66.013c0.005-3.662,0.043-7.323-0.011-10.983
		c-0.03-2.063,0.803-3.054,2.94-3.021c3.993,0.061,7.987,0.048,11.981,0.009c2.109-0.021,3.011,1,3.015,3.044
		c0.005,2.15-1.116,2.923-3.143,2.872c-2.162-0.056-4.327,0-6.489,0.027c-1.421,0.018-2.076,0.76-2.117,2.183
		c-0.045,1.533,0.346,2.643,2.128,2.673c1.663,0.028,3.327,0.047,4.991,0.051c2.257,0.006,2.738,1.416,2.708,3.31
		c-0.032,1.935-1.114,2.612-2.883,2.599c-1.498-0.012-2.996,0.032-4.493,0.024c-1.587-0.008-2.463,0.603-2.482,2.345
		c-0.021,1.833,0.623,2.832,2.579,2.792c1.997-0.04,3.996,0.055,5.991-0.005c2.018-0.06,3.127,0.738,3.215,2.851
		c0.103,2.454-1.2,3.245-3.415,3.069c-0.165-0.013-0.333-0.005-0.499,0.002C307.727,80.474,307.727,80.474,307.724,66.013z"/>
	<path fill-rule="evenodd" clip-rule="evenodd" fill="#F6FAF9" d="M257.982,65.498c-0.001-3.163,0.034-6.325-0.013-9.487
		c-0.032-2.22,0.311-3.932,3.136-4.023c2.939-0.094,3.148,1.67,3.121,3.882c-0.055,4.327,0.198,8.67-0.086,12.979
		c-0.257,3.897,1.013,5.591,5.058,5.137c1.567-0.176,3.395-0.597,4.78,0.668c1.574,1.435,0.729,4.611-1.323,5.146
		c-0.473,0.123-0.995,0.042-1.493,0.075C257.989,80.741,257.989,80.742,257.982,65.498z"/>
	<path fill-rule="evenodd" clip-rule="evenodd" fill="#67BC99" d="M101.049,30.902c-0.074,3.48-1.519,6.099-4.869,7.392
		c-4.6,1.776-6.352,0.546-6.39-4.391c-0.01-1.332-0.272-2.735,0.056-3.981c0.69-2.619-2.498-7.359,3.745-7.107
		C98.397,23.008,101.142,25.92,101.049,30.902z"/>
	<path fill-rule="evenodd" clip-rule="evenodd" fill="#6CBE9C" d="M284.685,65.978c0.001-0.994-0.006-1.987,0.002-2.98
		c0.041-5.041,3.162-6.783,7.536-4.154c3.441,2.069,4.349,5.302,3.675,9.016c-0.585,3.227-2.61,5.356-5.857,5.951
		c-3.323,0.609-6.089,0.234-5.384-4.36C284.83,68.318,284.683,67.137,284.685,65.978z"/>
	<path fill-rule="evenodd" clip-rule="evenodd" fill="#68BC9A" d="M246.88,66.333c-0.22,4.119-4.281,7.726-8.413,7.472
		c-3.951-0.242-7.443-4.07-7.328-8.032c0.123-4.239,3.903-7.806,8.175-7.714C243.58,58.152,247.111,62.013,246.88,66.333z"/>
	<path fill-rule="evenodd" clip-rule="evenodd" fill="#66BB98" d="M307.774,101.042c-0.001-0.825-0.119-1.672,0.023-2.471
		c0.32-1.792-1.134-4.366,1.338-5.203c2.34-0.793,4.881-0.4,7.015,1.295c3.704,2.94,3.995,8.884,0.641,12.285
		c-2.241,2.274-5.076,2.768-7.756,1.828c-2.33-0.818-0.938-3.45-1.237-5.264C307.665,102.71,307.775,101.866,307.774,101.042z"/>
	<path fill-rule="evenodd" clip-rule="evenodd" fill="#68BC99" d="M263.853,101.262c-0.066,4.417-3.634,7.828-8.078,7.725
		c-4.392-0.104-7.878-3.807-7.681-8.163c0.176-3.909,4.017-7.626,7.881-7.625C260.066,93.199,263.915,97.139,263.853,101.262z"/>
	<path fill-rule="evenodd" clip-rule="evenodd" fill="#6CBE9C" d="M262.938,30.638c1.498-2.635-2.44-7.729,3.997-7.83
		c4.836-0.076,7.992,3.211,7.9,8.2c-0.085,4.622-3.182,7.837-7.888,7.785C260.149,38.72,264.604,33.273,262.938,30.638z"/>
	<path fill-rule="evenodd" clip-rule="evenodd" fill="#6DBE9C" d="M231.627,106.722c-0.472,2.344-2.243,2.46-4.135,2.472
		c-2.021,0.012-2.387-1.181-2.391-2.879c-0.005-2.376,1.477-2.618,3.282-2.476C230.169,103.979,231.594,104.563,231.627,106.722z"/>
	<path fill-rule="evenodd" clip-rule="evenodd" fill="#6BBD9B" d="M226.888,92.994c2.548,0.092,4.036,0.689,3.93,2.853
		c-0.091,1.845-1.482,2.312-3.093,2.526c-2.059,0.274-2.608-0.762-2.617-2.558C225.099,94.087,225.493,92.833,226.888,92.994z"/>
	<path fill-rule="evenodd" clip-rule="evenodd" fill="#71C09F" d="M284.487,99.12c-1.5,0.053-3.354,0.157-3.456-2.868
		c-0.106-3.22,1.719-3.382,4.077-3.298c2.17,0.077,4.708-0.122,4.819,2.842C290.048,99.04,287.445,99.133,284.487,99.12z"/>
</g>
</svg>
